<?xml version="1.0" encoding="utf-8"?>
<!-- Generator: Adobe Illustrator 22.0.1, SVG Export Plug-In . SVG Version: 6.00 Build 0)  -->
<svg version="1.1" id="Layer_1" xmlns="http://www.w3.org/2000/svg" xmlns:xlink="http://www.w3.org/1999/xlink" x="0px" y="0px"
	 width="287.5px" height="33.3px" viewBox="0 0 287.5 33.3" style="enable-background:new 0 0 287.5 33.3;" xml:space="preserve">
<g>
	<path d="M31.7,15.9c1.8-1.5,2.9-3.7,2.9-6.2c0-4.5-3.7-8.2-8.2-8.2H12.1v30.5h14.2c4.9,0,8.9-4,8.9-8.9
		C35.2,20.1,33.8,17.5,31.7,15.9z M30.7,9.6c0,2.4-2,4.4-4.4,4.4H15.9V5.2h10.4C28.8,5.2,30.7,7.2,30.7,9.6z M26.3,28.1H15.9V17.9
		h10.4c2.8,0,5.1,2.3,5.1,5.1C31.4,25.8,29.1,28.1,26.3,28.1z"/>
	<polygon points="56.2,5.2 56.2,1.4 44.1,1.4 44.1,3.4 44.1,30 44.1,31.9 56.2,31.9 56.2,28.1 48,28.1 48,17.9 54.1,17.9 54.1,14.1 
		48,14.1 48,5.2 	"/>
	<polygon points="78.9,31.9 78.9,1.4 75,1.4 75,20 68.8,1.4 68.8,1.4 65,1.4 65,31.9 68.8,31.9 68.8,13.3 75,31.9 	"/>
	<polygon points="242.5,1.4 242.5,20 236.2,1.4 236.2,1.4 232.4,1.4 232.4,31.9 236.2,31.9 236.2,13.3 242.5,31.9 246.3,31.9 
		246.3,1.4 	"/>
	<polygon points="170.1,5.2 170.1,1.4 158.1,1.4 158.1,1.4 158.1,1.4 158.1,31.9 161.9,31.9 161.9,17.9 168.1,17.9 168.1,14.1 
		161.9,14.1 161.9,5.2 	"/>
	<path d="M200.1,31.9l-5-14.8c2.8-1.3,4.8-4.2,4.8-7.5c0-4.5-3.7-8.2-8.2-8.2h-14.3v0h0v30.5h3.8v-14h10.2l4.7,14H200.1z
		 M191.7,14.1h-10.5V5.2h10.5c2.4,0,4.4,2,4.4,4.4C196.1,12.1,194.1,14.1,191.7,14.1z"/>
	<path d="M213,1.4l-6.7,30.4h3.9l1.5-6.8h6.8l1.5,6.8h3.9l-6.7-30.4H213z M212.6,21.2l2.6-11.7l2.6,11.7H212.6z"/>
	<polygon points="275.3,31.9 267.3,14.8 273.6,1.4 269.4,1.4 261.8,17.5 261.8,1.4 258,1.4 258,31.9 261.8,31.9 261.8,26.4 
		265.1,19.3 271.1,31.9 	"/>
	<path d="M122.8,29.1c1.5,1.6,3.6,2.6,5.9,2.7c0.2,0,0.4,0,0.6,0l0-3.8c-3.6,0-3.8-2.9-3.8-5V23v-5.2h3.8v0V14h-3.9V1.4h-0.7h-7
		c-4.5,0-8.2,3.7-8.2,8.2c0,2.5,1.1,4.7,2.9,6.2c-2.2,1.6-3.6,4.2-3.6,7.1c0,4.9,4,8.9,8.9,8.9l0,0c0,0,0,0,0,0c0,0,0,0,0,0h0
		c0.2,0,0.4,0,0.6,0c2.3-0.1,4.4-1.2,5.9-2.7 M121.6,14.1h-3.8c-2.4,0-4.4-2-4.4-4.4c0-2.4,2-4.4,4.4-4.4h3.8V14.1z M121.5,17.9
		L121.5,17.9h-2.7H121.5z M112.6,23c0-2.8,2.3-5.1,5.1-5.1h3.8v5.2c0,2.1-0.3,5-3.8,5C114.9,28.1,112.6,25.8,112.6,23z"/>
</g>
</svg>
